# xmcd CD database file
#
# Track frame offsets:
#	150
#	48231
#	59619
#	85416
#	111938
#	141210
#	172908
#	223441
#	243919
#	263884
#	286290
#
# Disc length: 4122 seconds
#
# Revision: 3
# Processed by: cddbd v1.5.2PL0 Copyright (c) Steve Scherf et al.
# Submitted via: CDex 1.70beta2
#
DISCID=a810180b
DTITLE=Patricia Cornwell - Defekt CD03
DYEAR=2006
DGENRE=Hoerbuch
TTITLE0=301_Patricia Cornwell_-_ Defekt
TTITLE1=302_Patricia Cornwell_-_ Defekt
TTITLE2=303_Patricia Cornwell_-_ Defekt
TTITLE3=304_Patricia Cornwell_-_ Defekt
TTITLE4=305_Patricia Cornwell_-_ Defekt
TTITLE5=306_Patricia Cornwell_-_ Defekt
TTITLE6=307_Patricia Cornwell_-_ Defekt
TTITLE7=308_Patricia Cornwell_-_ Defekt
TTITLE8=309_Patricia Cornwell_-_ Defekt
TTITLE9=310_Patricia Cornwell_-_ Defekt
TTITLE10=311_Patricia Cornwell_-_ Defekt
EXTD=gelesen von Franziska Pigulla YEAR: 2006
EXTT0=
EXTT1=
EXTT2=
EXTT3=
EXTT4=
EXTT5=
EXTT6=
EXTT7=
EXTT8=
EXTT9=
EXTT10=
PLAYORDER=
